<svg width="17" height="18" viewBox="0 0 17 18" fill="none" xmlns="http://www.w3.org/2000/svg">
    <path d="M1.10182 5.69855C0.799123 5.61448 0.62199 5.30098 0.706007 4.99834L0.706013 4.99832C0.790107 4.69568 1.10366 4.51844 1.40627 4.60255L4.41346 5.43788L8.21641 6.49424V1.67977C8.21641 1.54746 8.22814 1.35882 8.30263 1.20028C8.34063 1.1194 8.39645 1.04308 8.47814 0.987249C8.56046 0.930984 8.66256 0.9 8.78516 0.9C9.00635 0.9 9.1555 0.99753 9.24428 1.13881C9.32885 1.27339 9.3539 1.43938 9.3539 1.57819L9.35391 6.81021L13.4508 7.94819L16.4685 8.78643C16.7712 8.87049 16.9483 9.184 16.8643 9.48663L16.8643 9.48666C16.7943 9.73851 16.5657 9.90329 16.3166 9.90329C16.2661 9.90329 16.2148 9.89653 16.1641 9.88243C16.1641 9.88243 16.1641 9.88242 16.1641 9.88242L14.5247 9.42704L16.8039 13.2263L16.7198 13.2768L16.8039 13.2263C16.8569 13.3146 16.885 13.4158 16.885 13.5189C16.885 15.4936 15.2786 17.1 13.3038 17.1C11.329 17.1 9.72265 15.4936 9.72265 13.5189C9.72265 13.4158 9.75067 13.3147 9.80371 13.2263C9.80372 13.2263 9.80372 13.2263 9.80372 13.2263L12.4318 8.84572L5.48741 6.91675L7.76663 10.7159L7.76664 10.7159C7.81963 10.8043 7.84769 10.9054 7.84769 11.0085C7.84769 12.9833 6.24127 14.5897 4.26654 14.5897C3.31018 14.5897 2.41056 14.217 1.73424 13.5407L1.80495 13.47L1.73424 13.5407C1.05796 12.8645 0.68533 11.9648 0.685394 11.0085L0.785394 11.0085L0.685394 11.0085C0.685318 10.9055 0.713347 10.8043 0.766393 10.7159L0.852144 10.7674L0.766411 10.7159L3.39446 6.3354M1.10182 5.69855L1.10182 5.69855L1.12858 5.6022L1.10182 5.69855ZM1.10182 5.69855L3.39446 6.3354M3.39446 6.3354L3.49442 6.36317L3.44784 6.24644L3.39446 6.3354ZM0.802363 5.02509C0.871675 4.77565 1.13011 4.62959 1.37949 4.6989L4.3867 5.53423L8.21641 6.59803L0.802363 5.02509ZM8.31641 6.52202V1.67977C8.31641 1.42089 8.36477 1 8.78516 1C9.15869 1 9.25391 1.31932 9.25391 1.57819V6.88622L13.424 8.04455L16.4417 8.88278C16.6912 8.95206 16.8372 9.21044 16.768 9.45988C16.7103 9.66735 16.5219 9.80329 16.3166 9.80329C16.275 9.80329 16.2328 9.79773 16.1909 9.78607L14.45 9.3025L8.31641 6.52202ZM15.6802 14.0876C15.4231 15.1616 14.4552 15.9625 13.3038 15.9625C12.1524 15.9625 11.1845 15.1616 10.9275 14.0876H15.6802ZM13.3038 9.60316L15.3118 12.9501H11.2958L13.3038 9.60316ZM6.27452 10.4397H2.25851L4.26654 7.09284L6.27452 10.4397ZM4.26648 13.4522C3.1151 13.4522 2.1472 12.6513 1.89011 11.5773H6.64288C6.38578 12.6513 5.41783 13.4522 4.26648 13.4522Z" fill="#003466" stroke="#003466" stroke-width="0.2"/>
</svg>
